<?xml version="1.0" standalone="no"?>
<!DOCTYPE svg PUBLIC "-//W3C//DTD SVG 20010904//EN"
 "http://www.w3.org/TR/2001/REC-SVG-20010904/DTD/svg10.dtd">
<svg version="1.0" xmlns="http://www.w3.org/2000/svg"
 width="500.000000pt" height="500.000000pt" viewBox="0 0 500.000000 500.000000"
 preserveAspectRatio="xMidYMid meet">
<metadata>
Created by potrace 1.16, written by Peter Selinger 2001-2019
</metadata>
<g transform="translate(0.000000,500.000000) scale(0.100000,-0.100000)"
fill="#000000" stroke="none">
<path d="M2280 4990 c-30 -5 -70 -7 -87 -3 -22 3 -33 1 -33 -7 0 -8 -10 -9
-30 -5 -19 4 -30 3 -30 -4 0 -6 -12 -8 -30 -4 -20 4 -30 2 -30 -7 0 -8 -8 -10
-25 -6 -15 4 -25 2 -25 -4 0 -6 -10 -8 -25 -4 -16 4 -25 2 -25 -6 0 -7 -8 -9
-20 -5 -12 4 -20 2 -20 -5 0 -7 -8 -9 -20 -5 -11 4 -20 2 -20 -4 0 -6 -7 -8
-15 -5 -8 4 -15 1 -15 -6 0 -7 -8 -9 -20 -5 -11 4 -20 2 -20 -4 0 -6 -7 -8
-15 -5 -8 4 -15 1 -15 -6 0 -7 -7 -10 -15 -6 -8 3 -15 1 -15 -5 0 -6 -7 -9
-15 -5 -8 3 -15 1 -15 -5 0 -6 -7 -9 -15 -5 -8 3 -15 1 -15 -5 0 -6 -9 -8 -21
-4 -14 5 -19 4 -15 -4 5 -7 1 -9 -8 -5 -9 3 -16 1 -16 -5 0 -6 -7 -8 -17 -4
-11 4 -14 3 -9 -5 5 -8 2 -10 -8 -6 -9 3 -16 1 -16 -5 0 -6 -7 -8 -17 -4 -11
4 -14 3 -9 -5 5 -8 2 -10 -8 -6 -9 3 -16 1 -16 -6 0 -6 -4 -8 -10 -5 -5 3 -10
1 -10 -5 0 -6 -4 -8 -10 -5 -11 7 -70 -21 -70 -34 0 -9 -77 -46 -97 -46 -8 0
-17 -5 -21 -10 -9 -13 -62 -47 -62 -40 0 3 -9 -4 -20 -15 -12 -12 -25 -18 -29
-15 -5 2 -11 -2 -15 -10 -3 -8 -12 -12 -20 -9 -9 3 -21 -5 -31 -20 -10 -14
-21 -24 -25 -21 -4 3 -11 -2 -14 -11 -3 -8 -10 -13 -15 -9 -6 3 -33 -17 -62
-45 -28 -27 -55 -48 -59 -45 -4 3 -15 -6 -24 -20 -9 -14 -20 -24 -24 -22 -4 1
-25 -17 -46 -41 -21 -23 -41 -40 -44 -37 -8 8 -42 -26 -42 -42 0 -8 -4 -12 -9
-9 -11 7 -43 -28 -34 -37 3 -4 0 -7 -9 -7 -15 0 -58 -40 -55 -51 4 -10 -61
-78 -68 -71 -4 4 -5 3 -3 -3 4 -14 -43 -75 -54 -69 -4 3 -8 -4 -8 -15 0 -11
-9 -26 -20 -34 -11 -8 -17 -16 -14 -20 3 -3 -4 -10 -15 -17 -12 -6 -19 -15
-16 -20 3 -5 -3 -13 -12 -19 -10 -6 -13 -11 -8 -11 6 0 -1 -10 -15 -21 -14
-11 -18 -18 -10 -14 9 4 8 0 -3 -8 -10 -9 -18 -18 -18 -21 1 -14 -12 -35 -19
-31 -4 3 -11 -2 -14 -11 -4 -10 -2 -13 7 -9 6 4 1 -2 -13 -13 -14 -12 -22 -24
-18 -28 8 -8 -22 -64 -34 -64 -12 0 -79 -140 -73 -150 4 -6 2 -10 -2 -10 -5 0
-10 -10 -10 -22 -1 -13 -7 -24 -13 -26 -5 -2 -8 -8 -4 -13 3 -5 0 -9 -6 -9 -6
0 -8 -4 -5 -10 3 -5 1 -10 -5 -10 -7 0 -9 -7 -6 -16 4 -10 2 -13 -6 -8 -7 5
-9 0 -6 -14 4 -12 3 -20 -2 -17 -4 2 -8 -7 -8 -21 0 -15 -5 -30 -11 -34 -7 -4
-14 -24 -16 -45 -2 -21 -8 -41 -14 -45 -7 -3 -9 -14 -5 -23 3 -10 1 -17 -5
-17 -6 0 -8 -7 -5 -15 4 -8 1 -15 -6 -15 -7 0 -9 -8 -5 -20 4 -12 2 -20 -5
-20 -7 0 -9 -8 -5 -20 4 -12 2 -20 -5 -20 -7 0 -9 -8 -5 -20 4 -12 2 -20 -5
-20 -8 0 -10 -9 -6 -25 4 -16 2 -25 -5 -25 -7 0 -9 -9 -5 -25 4 -15 2 -25 -5
-25 -7 0 -8 -11 -4 -30 4 -19 3 -30 -5 -30 -7 0 -9 -12 -4 -35 3 -19 2 -35 -2
-35 -11 0 -18 -125 -18 -320 0 -195 7 -320 18 -320 4 0 5 -16 2 -35 -5 -23 -3
-35 4 -35 8 0 9 -11 5 -30 -4 -20 -3 -30 5 -30 8 0 10 -9 6 -25 -4 -15 -2 -25
4 -25 6 0 8 -11 4 -26 -5 -19 -4 -25 5 -20 11 7 16 -23 13 -67 -1 -9 3 -17 9
-17 6 0 8 -9 4 -20 -4 -12 -2 -20 5 -20 7 0 10 -7 6 -15 -3 -8 -1 -15 5 -15 6
0 8 -9 4 -20 -4 -11 -2 -20 4 -20 6 0 8 -7 5 -15 -4 -8 -1 -15 5 -15 6 0 8 -7
5 -15 -4 -8 -1 -15 5 -15 6 0 8 -7 4 -17 -5 -11 -3 -14 6 -8 10 6 11 2 6 -15
-5 -14 -3 -20 3 -16 6 4 8 -2 4 -16 -3 -14 -1 -19 6 -14 8 5 10 2 6 -8 -3 -9
-1 -16 5 -16 6 0 8 -7 4 -17 -4 -11 -3 -14 5 -9 8 5 10 2 6 -8 -3 -9 -1 -16 6
-16 6 0 8 -5 5 -11 -4 -6 2 -19 14 -30 19 -18 26 -38 22 -61 0 -5 4 -8 10 -8
5 0 7 -4 4 -10 -7 -11 31 -90 43 -90 12 0 40 -54 35 -67 -3 -7 2 -16 11 -19 9
-3 16 -14 16 -25 0 -10 9 -23 20 -29 11 -6 18 -15 15 -21 -4 -5 -2 -9 4 -9 6
0 18 -15 28 -32 17 -33 19 -39 22 -59 0 -5 5 -8 10 -4 10 6 37 -33 33 -47 -1
-4 7 -12 18 -18 11 -6 18 -15 15 -19 -2 -5 7 -16 20 -25 14 -9 23 -21 20 -25
-2 -5 7 -16 20 -25 14 -10 23 -22 19 -28 -4 -7 -3 -8 5 -4 6 4 14 0 18 -11 3
-10 18 -28 32 -40 14 -11 26 -27 26 -35 1 -7 6 -12 12 -11 6 1 21 -9 33 -22
13 -14 20 -25 15 -25 -5 0 2 -11 15 -25 12 -13 26 -22 30 -20 5 3 22 -11 39
-30 17 -19 35 -35 40 -35 5 0 22 -15 37 -32 15 -18 31 -32 35 -31 5 2 16 -8
25 -22 9 -14 20 -23 24 -20 4 3 26 -13 48 -36 22 -22 50 -42 61 -44 20 -4 89
-50 102 -68 3 -5 10 -8 15 -8 5 1 16 -5 24 -12 8 -7 18 -12 21 -12 11 0 79
-40 79 -47 0 -12 100 -59 110 -53 6 4 10 2 10 -2 0 -5 10 -9 22 -10 11 -1 25
-8 29 -15 8 -12 13 -14 51 -17 9 0 24 -8 32 -17 9 -8 21 -12 27 -8 8 5 9 3 5
-5 -5 -8 -3 -12 5 -10 35 4 60 -2 53 -13 -5 -8 -2 -9 9 -5 10 4 17 2 17 -4 0
-6 6 -9 14 -6 7 3 24 0 38 -7 13 -7 29 -11 36 -8 6 2 12 -1 12 -6 0 -6 10 -8
22 -4 13 3 19 1 15 -5 -5 -7 0 -9 13 -6 11 3 20 1 20 -4 0 -5 16 -9 36 -10 20
-1 40 -7 44 -13 4 -7 16 -9 29 -5 13 4 21 2 21 -5 0 -6 10 -8 25 -4 16 4 25 2
25 -6 0 -8 10 -9 30 -5 19 4 30 3 30 -5 0 -7 12 -9 35 -4 19 3 35 2 35 -2 0
-11 134 -18 325 -18 191 0 315 7 315 18 0 4 16 5 35 2 23 -5 35 -3 35 4 0 8
11 9 30 5 20 -4 30 -3 30 5 0 8 9 10 25 6 16 -4 25 -2 25 5 0 7 9 9 25 5 15
-4 25 -2 25 4 0 7 8 9 20 5 12 -4 20 -2 20 5 0 7 8 9 20 5 12 -4 20 -2 20 5 0
7 8 9 20 5 12 -4 20 -2 20 5 0 7 8 9 21 5 15 -5 19 -4 15 4 -7 11 17 16 58 11
12 -1 16 2 11 11 -6 8 -4 10 5 4 7 -4 16 -2 20 5 4 7 19 12 34 12 14 0 26 5
26 10 0 5 5 6 10 3 6 -3 10 -1 10 5 0 7 7 10 15 6 8 -3 15 -1 15 4 0 5 7 7 15
4 8 -4 15 -1 15 6 0 6 5 8 10 5 6 -3 10 -2 10 4 0 6 7 7 17 4 12 -5 14 -3 8 7
-6 9 -4 11 5 5 7 -4 15 -2 20 4 4 7 19 14 34 15 15 2 36 13 47 25 11 12 24 19
29 16 11 -7 70 22 70 33 0 13 54 40 69 34 8 -3 11 0 7 7 -4 6 -2 12 3 12 6 1
16 3 21 4 6 1 15 3 21 4 5 0 8 5 5 9 -5 8 49 45 58 40 3 -2 12 6 21 17 9 11
13 14 10 7 -4 -8 9 -3 28 9 19 13 33 27 31 31 -5 8 36 34 48 30 4 -1 12 7 18
18 6 11 15 18 20 15 5 -3 18 8 30 25 12 17 25 28 29 25 5 -2 23 14 40 35 18
22 36 38 40 36 10 -6 164 148 156 156 -4 3 12 21 34 38 22 18 38 36 36 41 -3
4 8 17 25 29 17 12 28 26 25 30 -3 5 13 27 35 49 23 22 43 47 44 56 1 8 11 22
22 31 10 8 12 13 4 9 -8 -4 -6 1 4 9 11 9 21 24 22 33 2 9 12 24 24 33 11 8
22 26 25 39 2 14 10 28 16 31 6 4 9 10 7 13 -1 4 6 17 17 29 11 13 20 28 20
34 0 19 38 94 45 89 8 -5 31 41 35 70 4 28 37 109 48 116 5 3 8 9 7 13 -4 15
12 66 20 66 5 0 7 7 4 15 -4 8 -1 15 6 15 6 0 9 4 5 9 -3 5 -1 12 4 16 6 3 8
12 4 20 -3 8 0 15 6 15 6 0 8 7 5 15 -4 8 -1 15 6 15 7 0 9 8 5 20 -4 11 -2
20 4 20 6 0 8 7 5 15 -4 8 -1 15 6 15 7 0 9 8 5 20 -4 12 -2 20 5 20 7 0 9 8
5 20 -4 12 -2 20 5 20 8 0 10 9 6 25 -4 15 -2 25 4 25 6 0 8 10 4 25 -4 16 -2
25 6 25 8 0 9 10 5 30 -4 19 -3 30 5 30 7 0 9 12 4 36 -4 22 -3 35 2 31 12 -7
18 108 18 333 0 232 -6 340 -17 340 -5 0 -6 13 -2 30 4 20 3 30 -5 30 -9 0
-11 10 -6 30 3 19 1 30 -5 30 -7 0 -9 10 -5 25 4 16 2 25 -5 25 -7 0 -9 9 -5
25 4 15 2 25 -4 25 -7 0 -9 8 -5 20 4 12 2 20 -5 20 -7 0 -9 8 -5 20 4 12 2
20 -5 20 -7 0 -9 7 -6 17 4 9 2 20 -5 23 -6 4 -12 19 -12 34 -1 14 -6 26 -10
26 -5 0 -5 9 -2 20 4 12 2 20 -5 20 -6 0 -8 5 -5 10 3 6 1 10 -5 10 -7 0 -10
7 -6 15 3 8 1 15 -5 15 -6 0 -9 6 -6 14 3 8 1 16 -5 18 -6 2 -10 16 -10 31 0
15 -5 27 -10 27 -5 0 -6 5 -2 12 4 6 -1 17 -10 24 -9 6 -18 24 -19 38 -1 15
-7 30 -14 34 -14 9 -56 102 -46 102 4 0 -3 9 -15 20 -21 20 -27 33 -22 55 1 5
-6 15 -15 21 -8 6 -17 21 -20 32 -4 25 -34 72 -45 72 -10 0 -65 92 -62 102 1
4 -7 12 -18 18 -11 6 -18 15 -15 19 3 5 -2 12 -11 15 -8 3 -13 10 -9 15 3 6
-6 18 -20 27 -13 9 -23 20 -20 24 3 4 -7 15 -20 24 -14 9 -23 21 -20 26 3 5
-8 18 -25 30 -17 12 -28 25 -25 30 3 4 -2 13 -10 20 -8 7 -15 10 -15 6 0 -3
-8 2 -19 12 -10 9 -18 19 -18 22 1 10 -124 135 -133 133 -5 -2 -24 15 -41 37
-17 21 -34 38 -38 37 -3 -1 -7 2 -8 6 -3 13 -37 36 -45 31 -4 -2 -14 6 -23 18
-8 13 -19 23 -23 24 -20 2 -41 17 -36 25 3 5 2 9 -3 8 -15 -4 -43 13 -37 22 3
5 0 10 -5 10 -20 3 -26 5 -58 22 -18 10 -33 22 -33 27 0 6 -3 9 -7 8 -14 -4
-92 45 -87 54 3 4 -1 9 -8 10 -7 0 -17 2 -23 3 -21 3 -190 88 -197 99 -4 6 -8
8 -8 4 0 -10 -60 12 -60 23 0 4 -7 6 -15 3 -8 -4 -15 -1 -15 5 0 6 -3 10 -7
10 -22 -4 -43 3 -57 17 -9 8 -20 12 -26 9 -5 -3 -10 -1 -10 5 0 7 -7 10 -15 6
-8 -3 -15 -1 -15 5 0 6 -9 8 -20 4 -11 -4 -20 -2 -20 4 0 6 -7 8 -15 5 -8 -4
-15 -1 -15 5 0 6 -7 8 -15 5 -8 -4 -15 -1 -15 6 0 7 -8 9 -20 5 -12 -4 -20 -2
-20 5 0 7 -8 9 -20 5 -12 -4 -20 -2 -20 5 0 7 -8 9 -20 5 -12 -4 -20 -2 -20 5
0 8 -9 10 -25 6 -15 -4 -25 -2 -25 4 0 6 -10 8 -25 4 -16 -4 -25 -2 -25 6 0 8
-10 9 -30 5 -20 -4 -30 -3 -30 5 0 8 -10 9 -30 5 -17 -4 -30 -2 -30 3 0 5 -21
9 -47 10 -27 0 -140 3 -253 5 -113 3 -230 2 -260 -3z m520 -25 c546 -68 1045
-309 1440 -697 327 -320 562 -731 670 -1170 56 -229 65 -310 65 -593 0 -290
-11 -389 -69 -619 -44 -172 -91 -298 -180 -481 -112 -228 -260 -440 -444 -634
-39 -41 -69 -78 -67 -82 3 -4 -3 -13 -13 -20 -15 -13 -16 -12 -3 4 7 9 9 17 4
17 -13 0 -84 -75 -78 -82 4 -3 1 -9 -6 -14 -8 -4 -10 -3 -5 4 14 23 -4 11 -96
-60 -415 -325 -907 -499 -1448 -515 -575 -16 -1095 149 -1560 496 -141 105
-369 330 -477 471 -214 279 -387 652 -457 980 -68 319 -73 672 -15 985 107
578 421 1105 876 1472 51 42 91 79 88 83 -3 5 0 12 6 16 8 4 9 3 5 -4 -12 -20
0 -14 111 59 302 198 679 337 1039 383 151 19 460 20 614 1z"/>
<path d="M2184 4841 c-58 -26 -87 -72 -92 -143 -6 -82 31 -158 92 -187 48 -24
69 -25 132 -10 82 21 133 109 115 202 -24 132 -130 191 -247 138z m136 -86
c20 -21 24 -37 25 -86 0 -52 -3 -64 -24 -80 -36 -30 -84 -25 -115 12 -35 41
-37 128 -4 159 32 29 88 27 118 -5z"/>
<path d="M2570 4837 c-54 -36 -74 -80 -75 -163 0 -81 15 -110 75 -151 45 -31
130 -32 171 -2 25 18 59 66 59 83 0 10 -72 36 -81 30 -5 -3 -9 -11 -9 -19 0
-17 -38 -45 -63 -45 -10 0 -29 11 -42 25 -20 19 -25 34 -25 72 0 58 16 92 52
112 21 12 31 13 53 3 15 -7 29 -21 32 -32 4 -15 14 -20 37 -20 51 0 60 11 42
53 -21 51 -67 77 -137 77 -42 0 -65 -6 -89 -23z"/>
<path d="M2857 4658 c-15 -94 -26 -172 -24 -174 1 -1 20 -5 42 -8 l41 -7 26
173 c29 187 29 188 -27 188 l-31 0 -27 -172z"/>
<path d="M3045 4788 c-8 -24 -85 -319 -85 -327 0 -8 225 -71 252 -71 14 0 34
57 25 67 -2 1 -43 13 -91 25 l-86 23 6 30 c3 16 8 33 10 36 2 4 40 -4 84 -16
44 -12 82 -20 84 -16 2 3 7 20 10 37 7 30 6 31 -41 44 -118 30 -125 35 -104
69 8 13 21 11 92 -7 45 -12 84 -21 86 -19 2 3 8 19 13 36 6 23 6 33 -3 36 -7
2 -57 16 -112 30 -55 14 -108 28 -118 31 -9 3 -19 0 -22 -8z"/>
<path d="M1823 4766 c-43 -21 -54 -31 -63 -63 -24 -81 21 -124 139 -133 65 -4
76 -8 79 -24 9 -44 -84 -65 -112 -25 -13 19 -18 20 -50 9 -41 -13 -43 -20 -20
-56 35 -52 110 -68 182 -39 76 32 104 83 82 151 -16 48 -71 73 -157 74 -66 0
-88 14 -58 37 26 18 72 16 83 -4 9 -15 15 -15 51 -4 23 6 41 16 41 21 0 5 -13
24 -28 41 -39 44 -98 49 -169 15z"/>
<path d="M3375 4660 l-15 -29 44 -23 44 -23 -59 -123 c-33 -68 -57 -127 -54
-132 6 -9 64 -34 69 -29 2 2 29 56 61 119 32 63 59 117 61 119 2 2 21 -4 44
-13 51 -20 47 -21 65 14 l15 30 -120 60 c-66 33 -124 60 -130 60 -5 0 -16 -13
-25 -30z"/>
<path d="M1328 4552 c-48 -26 -88 -51 -88 -55 0 -7 156 -295 165 -305 3 -3 64
25 74 34 2 1 -11 27 -28 57 -17 30 -31 59 -31 65 0 26 42 21 109 -13 39 -19
74 -35 78 -35 5 0 25 11 47 24 l39 23 -59 32 c-33 17 -69 34 -81 38 -27 6 -27
2 -8 46 17 41 8 76 -27 115 -35 36 -88 29 -190 -26z"/>
<path d="M3675 4433 c-7 -125 -7 -126 -46 -182 l-39 -56 28 -22 c15 -13 32
-23 38 -23 6 0 28 26 49 58 36 56 43 61 139 102 56 23 105 46 109 50 4 4 -9
20 -29 35 l-37 28 -63 -31 -64 -32 0 74 0 73 -39 26 -38 26 -8 -126z"/>
<path d="M1060 4373 c-47 -36 -93 -71 -104 -78 -17 -12 -11 -22 83 -149 56
-74 105 -137 110 -141 5 -3 57 31 116 76 l105 80 -21 30 c-14 20 -25 27 -32
21 -7 -5 -40 -30 -74 -55 -34 -26 -64 -47 -67 -47 -2 0 -14 13 -25 28 l-20 29
64 49 c36 27 65 51 65 54 0 12 -32 50 -41 50 -6 0 -38 -21 -71 -47 l-61 -46
-19 23 -18 23 70 51 c38 28 69 56 69 61 0 10 -34 56 -41 54 -1 0 -41 -30 -88
-66z"/>
<path d="M773 4106 l-92 -104 23 -21 c30 -28 36 -27 69 14 l29 36 105 -97 105
-97 23 29 c14 16 24 32 25 36 0 3 -45 48 -100 99 l-100 93 30 31 c16 17 30 36
30 42 0 9 -42 43 -52 43 -2 0 -44 -47 -95 -104z"/>
<path d="M4040 4143 c-111 -59 -148 -169 -88 -261 16 -23 39 -49 53 -58 33
-22 104 -29 147 -15 45 15 114 84 129 128 32 99 -43 216 -148 230 -29 4 -51
-2 -93 -24z m144 -94 c30 -35 32 -49 11 -89 -35 -68 -129 -97 -166 -51 -38 47
-18 113 45 152 46 28 80 24 110 -12z"/>
<path d="M603 3906 l-21 -33 100 -69 c119 -81 129 -93 108 -132 -27 -47 -57
-41 -170 35 -99 65 -103 67 -117 48 -36 -48 -37 -47 83 -128 152 -102 195
-103 262 -3 41 61 43 111 7 154 -23 27 -186 146 -217 157 -7 3 -22 -10 -35
-29z"/>
<path d="M2180 3859 c-25 -23 -92 -87 -150 -142 -132 -126 -277 -265 -400
-382 -52 -49 -182 -173 -288 -274 l-192 -183 0 -44 0 -44 580 0 580 0 0 555 0
555 -43 0 c-36 0 -50 -6 -87 -41z"/>
<path d="M2390 3855 c0 -44 2 -46 128 -167 70 -68 174 -168 232 -223 58 -54
152 -144 210 -200 58 -56 194 -185 302 -288 197 -186 197 -187 243 -187 l45 0
-2 553 -3 552 -577 3 -578 2 0 -45z"/>
<path d="M4269 3809 c-74 -50 -140 -94 -148 -99 -12 -6 -10 -14 8 -44 13 -20
25 -36 27 -36 3 0 28 16 57 35 28 19 55 35 59 35 4 0 24 -25 44 -55 l37 -55
28 21 c16 11 29 24 29 28 0 4 -16 30 -35 57 -34 48 -34 49 -16 68 24 23 32 18
81 -55 34 -49 44 -58 59 -50 45 24 43 33 -28 139 l-67 101 -135 -90z"/>
<path d="M432 3565 c-26 -12 -40 -29 -67 -87 -50 -109 -52 -122 -18 -137 52
-25 283 -121 288 -121 7 0 38 71 33 75 -2 1 -27 13 -55 25 -29 12 -53 26 -53
30 0 4 7 24 15 43 18 43 19 100 4 129 -10 18 -81 58 -104 57 -5 0 -25 -6 -43
-14z"/>
<path d="M4478 3412 c-87 -37 -158 -73 -158 -80 0 -7 7 -26 15 -42 l15 -28
152 64 c84 36 157 69 161 73 7 7 -16 82 -25 80 -2 0 -74 -30 -160 -67z"/>
<path d="M4532 3267 l-163 -51 6 -36 c4 -19 9 -37 11 -39 3 -3 43 8 90 23 47
15 87 26 89 24 2 -1 -30 -41 -70 -87 l-73 -84 13 -36 c9 -27 17 -35 31 -33 24
4 307 92 312 96 5 6 -9 76 -16 76 -3 0 -44 -12 -90 -26 -46 -14 -86 -24 -88
-22 -2 2 28 40 67 83 63 72 69 83 65 114 -3 19 -9 37 -13 41 -4 4 -81 -15
-171 -43z"/>
<path d="M275 3238 c-32 -99 -35 -95 77 -155 37 -21 66 -38 64 -40 -4 -4 -77
-10 -148 -12 l-46 -1 -12 -51 c-7 -28 -9 -54 -4 -58 5 -5 82 -26 171 -48 l163
-41 10 36 c12 43 12 43 -88 68 l-77 19 93 3 c62 2 94 7 97 15 19 64 20 63 -65
108 -44 24 -78 44 -76 46 2 2 41 -5 86 -17 45 -12 83 -20 85 -18 5 6 16 78 12
78 -3 0 -76 18 -165 40 -182 46 -171 44 -177 28z"/>
<path d="M4605 2903 c-82 -7 -151 -16 -154 -19 -10 -10 19 -197 34 -221 27
-40 98 -66 162 -60 118 12 168 66 165 176 -3 111 -10 141 -35 140 -12 -1 -89
-8 -172 -16z m133 -107 c8 -70 -31 -106 -117 -106 -52 0 -81 25 -88 77 l-5 41
78 7 c44 3 86 8 94 9 27 6 35 0 38 -28z"/>
<path d="M260 2782 c-19 -9 -45 -35 -58 -57 -19 -33 -22 -52 -20 -107 3 -61 7
-71 38 -103 43 -44 86 -58 161 -53 99 7 159 70 159 165 0 112 -64 173 -181
173 -41 0 -77 -6 -99 -18z m176 -87 c42 -27 40 -98 -5 -132 -20 -16 -102 -17
-134 -2 -26 12 -47 47 -47 77 0 24 28 62 54 73 28 12 104 3 132 -16z"/>
<path d="M1150 2681 c0 -44 4 -52 38 -81 20 -18 89 -83 152 -144 64 -61 194
-185 290 -276 202 -191 332 -315 480 -458 103 -100 106 -102 153 -102 l47 0
-2 553 -3 552 -577 3 -578 2 0 -49z"/>
<path d="M3399 2667 c-85 -81 -470 -448 -589 -563 -52 -50 -168 -160 -257
-244 -161 -153 -163 -154 -163 -197 l0 -43 580 0 580 0 -2 553 -3 552 -41 1
c-36 2 -46 -4 -105 -59z"/>
<path d="M4464 2516 c-3 -19 -3 -39 1 -45 4 -7 68 -11 181 -11 l174 0 0 39 0
38 -77 7 c-42 3 -120 6 -174 6 l-98 0 -7 -34z"/>
<path d="M4466 2428 c-12 -46 -6 -67 24 -85 32 -18 33 -25 24 -95 -6 -44 -8
-46 -47 -54 -37 -8 -42 -12 -49 -48 -5 -21 -6 -41 -3 -44 5 -5 313 55 351 69
28 10 38 73 15 93 -16 13 -299 186 -305 186 -2 0 -6 -10 -10 -22z"/>
<path d="M420 2388 c0 -13 -3 -32 -6 -44 -5 -17 0 -22 25 -27 43 -9 67 -48 52
-86 -14 -33 -47 -50 -112 -58 -42 -5 -50 -2 -73 20 -33 33 -33 61 -1 93 24 24
24 25 8 59 -9 19 -21 35 -26 35 -5 0 -24 -15 -43 -34 -31 -31 -34 -39 -34 -92
0 -128 102 -198 232 -160 75 22 119 69 126 134 8 92 -35 160 -115 177 -30 6
-33 4 -33 -17z"/>
<path d="M1580 1380 l0 -160 110 0 110 0 0 35 0 35 -75 0 -75 0 0 30 0 30 65
0 65 0 0 35 0 35 -65 0 c-63 0 -65 1 -65 25 0 24 2 25 70 25 l70 0 0 35 0 35
-105 0 -105 0 0 -160z"/>
<path d="M1869 1525 c-40 -22 -53 -70 -32 -114 15 -30 28 -40 78 -57 65 -23
82 -48 44 -63 -33 -12 -59 -2 -70 25 -6 18 -16 24 -39 24 -27 0 -30 -3 -30
-31 0 -20 10 -40 29 -60 58 -58 183 -29 197 46 12 66 -19 105 -106 130 -56 17
-62 45 -8 45 21 0 31 -6 35 -20 4 -15 14 -20 39 -20 29 0 34 3 34 24 0 14 -10
37 -23 52 -29 33 -106 43 -148 19z"/>
<path d="M2060 1505 c0 -34 1 -35 40 -35 l40 0 0 -125 0 -125 35 0 35 0 0 125
0 125 41 0 c39 0 40 1 37 33 l-3 32 -112 3 -113 3 0 -36z"/>
<path d="M2310 1381 l0 -161 65 0 c125 0 169 42 169 160 0 71 -20 122 -55 141
-12 6 -57 13 -100 16 l-79 6 0 -162z m144 73 c17 -16 19 -32 16 -99 -2 -51
-14 -65 -56 -65 l-34 0 0 90 0 90 29 0 c16 0 37 -7 45 -16z"/>
<path d="M2833 1494 c-31 -32 -43 -53 -43 -74 l0 -31 30 16 29 15 3 -97 3 -98
33 -3 32 -3 0 160 c0 161 0 161 -22 160 -13 0 -41 -20 -65 -45z"/>
<path d="M3028 1524 c-36 -19 -48 -43 -48 -99 0 -38 5 -52 30 -77 25 -25 36
-29 60 -24 34 6 41 -12 14 -35 -14 -11 -18 -11 -29 4 -13 19 -75 24 -75 7 0
-20 29 -68 45 -74 27 -10 79 -6 96 7 33 25 49 74 49 149 0 83 -22 132 -66 148
-33 13 -44 12 -76 -6z"/>
<path d="M3211 1461 c-6 -39 -11 -77 -11 -85 0 -20 40 -25 66 -8 19 11 24 10
38 -3 19 -19 20 -38 6 -66 -14 -25 -37 -24 -45 1 -5 15 -15 20 -42 20 -33 0
-35 -1 -29 -27 17 -70 109 -98 159 -47 63 62 37 175 -44 191 -44 9 -35 22 19
25 45 3 47 4 50 36 l3 32 -79 0 -79 0 -12 -69z"/>
<path d="M3420 1458 c-7 -40 -14 -76 -17 -81 -2 -4 8 -11 22 -17 19 -7 32 -6
48 5 36 23 65 -13 47 -60 -11 -30 -40 -33 -47 -5 -8 30 -73 29 -73 -1 0 -11
13 -34 29 -50 56 -56 133 -33 162 49 21 61 -29 142 -88 142 -14 0 -21 4 -18
10 3 6 26 10 51 10 44 0 44 0 44 35 l0 35 -74 0 -74 0 -12 -72z"/>
<path d="M1394 688 c-4 -6 -3 -13 3 -15 30 -10 45 -30 38 -52 l-7 -23 -15 22
c-23 32 -47 8 -38 -39 13 -80 17 -91 32 -91 15 0 14 20 -3 63 -4 11 1 13 23 9
15 -3 31 -9 34 -15 8 -11 39 -2 39 12 0 5 -9 11 -21 14 -17 5 -19 9 -9 26 11
22 44 28 55 11 3 -5 -8 -42 -25 -81 -24 -56 -28 -74 -18 -81 22 -13 28 -5 60
69 19 47 34 70 42 67 8 -3 16 2 19 11 5 11 -4 20 -31 32 -20 9 -63 29 -95 45
-66 32 -73 33 -83 16z"/>
<path d="M3420 640 c-58 -27 -109 -51 -115 -53 -5 -3 -1 -13 10 -24 11 -11 31
-50 45 -86 26 -71 27 -72 49 -58 12 8 9 22 -16 84 l-31 75 49 21 c28 12 49 28
49 37 0 26 35 -16 69 -83 22 -45 35 -61 46 -57 20 8 20 12 -16 89 -24 51 -29
69 -19 75 12 8 6 31 -8 29 -4 0 -54 -23 -112 -49z"/>
<path d="M1790 625 c-8 -9 -10 -28 -6 -50 l7 -34 -33 11 c-18 5 -51 19 -74 29
-48 22 -74 24 -74 5 0 -7 21 -21 48 -31 26 -10 51 -21 55 -25 5 -4 -2 -40 -14
-80 -20 -61 -21 -72 -9 -80 20 -12 24 -6 50 73 12 37 27 67 34 67 20 0 41 34
38 59 -4 27 15 43 41 35 20 -6 23 6 5 24 -17 17 -53 15 -68 -3z"/>
<path d="M3042 598 c-15 -15 -16 -64 -2 -73 8 -5 8 -11 0 -20 -8 -9 -7 -17 3
-27 8 -7 22 -46 31 -86 11 -44 23 -72 31 -72 23 0 24 12 7 88 -13 60 -13 75
-3 82 18 10 5 30 -20 30 -25 0 -35 25 -19 45 15 18 67 19 99 1 l24 -13 -37
-13 c-42 -13 -43 -37 -2 -32 20 2 26 -2 26 -18 0 -11 -7 -20 -15 -20 -26 0
-16 -30 18 -50 74 -46 136 -49 158 -9 15 30 8 31 -39 8 -37 -19 -46 -20 -73
-9 -27 12 -28 14 -15 29 11 12 14 28 10 53 -6 34 -5 36 26 43 28 6 50 29 38
40 -3 3 -19 0 -37 -6 -28 -10 -38 -8 -81 15 -51 28 -108 34 -128 14z"/>
<path d="M2950 485 c-30 -7 -76 -16 -102 -19 -59 -9 -68 -36 -13 -36 31 0 35
-3 35 -27 0 -20 -3 -24 -11 -16 -13 13 -39 6 -39 -10 0 -16 81 -97 97 -97 22
0 15 15 -18 39 l-31 23 26 13 c14 7 34 11 46 8 15 -4 20 -1 20 16 0 18 -4 20
-25 15 -21 -5 -25 -3 -25 18 0 28 33 53 47 35 5 -7 17 -48 26 -91 19 -92 27
-103 55 -85 24 15 37 7 28 -16 -9 -25 -47 -34 -78 -19 -17 9 -28 10 -28 4 0
-18 66 -43 94 -36 51 13 51 75 2 98 -19 8 -26 24 -38 83 -13 64 -13 73 0 82 9
5 12 15 8 21 -8 14 -5 14 -76 -3z"/>
<path d="M2520 420 c0 -17 7 -20 50 -20 38 0 50 -4 50 -15 0 -10 -11 -15 -35
-15 -36 0 -55 -20 -55 -59 0 -23 45 -79 55 -69 4 4 0 14 -9 23 -32 33 -16 75
29 75 19 0 31 -85 16 -104 -16 -19 0 -29 32 -20 33 8 43 -11 15 -30 -28 -20
-52 -20 -68 -1 -7 8 -17 15 -23 15 -19 0 34 -48 60 -55 31 -7 73 18 73 44 0
10 -9 29 -19 43 -24 29 -42 178 -22 178 6 0 11 7 11 15 0 12 -16 15 -80 15
-73 0 -80 -2 -80 -20z"/>
</g>
</svg>
